<svg width="96" height="32" viewBox="0 0 96 32" fill="none" xmlns="http://www.w3.org/2000/svg">
<rect x="0.27907" y="0.27907" width="95.4419" height="31.4419" rx="7.72093" fill="white"/>
<rect x="0.27907" y="0.27907" width="95.4419" height="31.4419" rx="7.72093" stroke="black" stroke-width="0.55814"/>
<path d="M20.0212 13.3073C19.9218 13.3835 18.1665 14.3603 18.1665 16.5325C18.1665 19.0449 20.4001 19.9338 20.4669 19.9558C20.4566 20.01 20.1121 21.1731 19.2893 22.3582C18.5556 23.4011 17.7894 24.4423 16.6237 24.4423C15.4581 24.4423 15.1581 23.7736 13.8124 23.7736C12.5011 23.7736 12.0348 24.4643 10.9686 24.4643C9.90238 24.4643 9.15842 23.4993 8.30304 22.3142C7.31224 20.9225 6.51172 18.7605 6.51172 16.7086C6.51172 13.4173 8.67845 11.6718 10.8109 11.6718C11.944 11.6718 12.8885 12.4066 13.5999 12.4066C14.277 12.4066 15.3329 11.6278 16.622 11.6278C17.1105 11.6278 18.8659 11.6718 20.0212 13.3073ZM16.01 10.2344C16.5431 9.60972 16.9203 8.74289 16.9203 7.87606C16.9203 7.75586 16.91 7.63396 16.8877 7.53577C16.0203 7.56793 14.9884 8.10632 14.3661 8.81908C13.8776 9.36762 13.4216 10.2344 13.4216 11.1131C13.4216 11.2452 13.4439 11.3772 13.4542 11.4196C13.509 11.4297 13.5982 11.4416 13.6873 11.4416C14.4655 11.4416 15.4444 10.9269 16.01 10.2344Z" fill="black"/>
<path d="M25.8065 10.6511C25.7615 10.6511 25.7232 10.6354 25.6918 10.6039C25.6603 10.5724 25.6445 10.5342 25.6445 10.4892V6.09614C25.6445 6.04665 25.6603 6.00616 25.6918 5.97467C25.7232 5.94318 25.7615 5.92744 25.8065 5.92744H27.453C27.9074 5.92744 28.2808 5.99717 28.5732 6.13663C28.8701 6.27609 29.0928 6.48303 29.2413 6.75745C29.3942 7.03188 29.473 7.36704 29.4775 7.76293C29.4865 7.96087 29.4909 8.13632 29.4909 8.28928C29.4909 8.44224 29.4865 8.61544 29.4775 8.80888C29.4685 9.22727 29.392 9.57367 29.248 9.8481C29.1041 10.118 28.8859 10.3205 28.5934 10.4554C28.3055 10.5859 27.9366 10.6511 27.4868 10.6511H25.8065ZM26.5825 9.87509H27.453C27.7049 9.87509 27.9096 9.8391 28.0671 9.76712C28.2246 9.69514 28.3393 9.58042 28.4112 9.42296C28.4877 9.26101 28.5282 9.04957 28.5327 8.78864C28.5372 8.65368 28.5395 8.53671 28.5395 8.43774C28.544 8.33427 28.544 8.23304 28.5395 8.13407C28.5395 8.0306 28.5372 7.91363 28.5327 7.78317C28.5237 7.41427 28.4315 7.1421 28.256 6.96665C28.0806 6.7912 27.8017 6.70347 27.4193 6.70347H26.5825V9.87509ZM31.8604 10.7186C31.5005 10.7186 31.1968 10.6556 30.9494 10.5297C30.7065 10.4037 30.5198 10.226 30.3893 9.99655C30.2633 9.76712 30.1913 9.49944 30.1734 9.19353C30.1689 9.11255 30.1666 9.01358 30.1666 8.89661C30.1666 8.77964 30.1689 8.68067 30.1734 8.59969C30.1913 8.28928 30.2656 8.0216 30.396 7.79667C30.531 7.56723 30.72 7.38953 30.9629 7.26356C31.2103 7.1376 31.5095 7.07462 31.8604 7.07462C32.2113 7.07462 32.5082 7.1376 32.7511 7.26356C32.9986 7.38953 33.1875 7.56723 33.318 7.79667C33.4529 8.0216 33.5294 8.28928 33.5474 8.59969C33.5519 8.68067 33.5542 8.77964 33.5542 8.89661C33.5542 9.01358 33.5519 9.11255 33.5474 9.19353C33.5294 9.49944 33.4552 9.76712 33.3247 9.99655C33.1988 10.226 33.0121 10.4037 32.7646 10.5297C32.5217 10.6556 32.2203 10.7186 31.8604 10.7186ZM31.8604 10.0505C32.0988 10.0505 32.2833 9.97631 32.4137 9.82785C32.5442 9.67489 32.6162 9.45221 32.6297 9.15979C32.6342 9.09231 32.6364 9.00458 32.6364 8.89661C32.6364 8.78864 32.6342 8.70091 32.6297 8.63343C32.6162 8.34551 32.5442 8.12507 32.4137 7.97212C32.2833 7.81916 32.0988 7.74268 31.8604 7.74268C31.622 7.74268 31.4375 7.81916 31.307 7.97212C31.1766 8.12507 31.1046 8.34551 31.0911 8.63343C31.0866 8.70091 31.0844 8.78864 31.0844 8.89661C31.0844 9.00458 31.0866 9.09231 31.0911 9.15979C31.1046 9.45221 31.1766 9.67489 31.307 9.82785C31.4375 9.97631 31.622 10.0505 31.8604 10.0505ZM35.1612 10.6511C35.0982 10.6511 35.051 10.6354 35.0195 10.6039C34.988 10.5724 34.961 10.5319 34.9385 10.4824L33.9735 7.35129C33.9691 7.3288 33.9668 7.30855 33.9668 7.29056C33.9668 7.25007 33.9803 7.21633 34.0073 7.18933C34.0388 7.15784 34.0725 7.1421 34.1085 7.1421H34.6079C34.6619 7.1421 34.7046 7.15784 34.7361 7.18933C34.7676 7.21633 34.7856 7.24332 34.7901 7.27031L35.4514 9.50394L36.1532 7.29056C36.1622 7.25907 36.1824 7.22757 36.2139 7.19608C36.2454 7.16009 36.2927 7.1421 36.3556 7.1421H36.693C36.756 7.1421 36.8033 7.16009 36.8348 7.19608C36.8662 7.22757 36.8865 7.25907 36.8955 7.29056L37.5973 9.50394L38.2586 7.27031C38.2631 7.24332 38.2789 7.21633 38.3058 7.18933C38.3373 7.15784 38.3801 7.1421 38.4341 7.1421H38.9334C38.9739 7.1421 39.0077 7.15784 39.0346 7.18933C39.0661 7.21633 39.0819 7.25007 39.0819 7.29056C39.0819 7.30855 39.0774 7.3288 39.0684 7.35129L38.1034 10.4824C38.0899 10.5319 38.0652 10.5724 38.0292 10.6039C37.9977 10.6354 37.9504 10.6511 37.8875 10.6511H37.4488C37.3859 10.6511 37.3364 10.6354 37.3004 10.6039C37.2644 10.5724 37.2396 10.5319 37.2261 10.4824L36.5243 8.35001L35.8225 10.4824C35.8045 10.5319 35.7775 10.5724 35.7416 10.6039C35.7101 10.6354 35.6606 10.6511 35.5931 10.6511H35.1612ZM39.9005 10.6511C39.8555 10.6511 39.8173 10.6354 39.7858 10.6039C39.7543 10.5724 39.7386 10.5342 39.7386 10.4892V7.30405C39.7386 7.25907 39.7543 7.22083 39.7858 7.18933C39.8173 7.15784 39.8555 7.1421 39.9005 7.1421H40.4539C40.4988 7.1421 40.5371 7.15784 40.5686 7.18933C40.6001 7.22083 40.6158 7.25907 40.6158 7.30405V7.58073C40.7328 7.43677 40.8812 7.31755 41.0612 7.22308C41.2456 7.1241 41.4728 7.07462 41.7427 7.07462C42.0172 7.07462 42.2556 7.1376 42.4581 7.26356C42.6605 7.38503 42.8157 7.55823 42.9237 7.78317C43.0361 8.00811 43.0924 8.27803 43.0924 8.59294V10.4892C43.0924 10.5342 43.0766 10.5724 43.0451 10.6039C43.0136 10.6354 42.9754 10.6511 42.9304 10.6511H42.3366C42.2916 10.6511 42.2534 10.6354 42.2219 10.6039C42.1904 10.5724 42.1746 10.5342 42.1746 10.4892V8.63343C42.1746 8.37251 42.1094 8.16781 41.9789 8.01935C41.853 7.8709 41.6685 7.79667 41.4256 7.79667C41.1917 7.79667 41.005 7.8709 40.8655 8.01935C40.726 8.16781 40.6563 8.37251 40.6563 8.63343V10.4892C40.6563 10.5342 40.6406 10.5724 40.6091 10.6039C40.5776 10.6354 40.5393 10.6511 40.4943 10.6511H39.9005ZM44.1182 10.6511C44.0733 10.6511 44.035 10.6354 44.0035 10.6039C43.972 10.5724 43.9563 10.5342 43.9563 10.4892V6.02191C43.9563 5.97692 43.972 5.93868 44.0035 5.90719C44.035 5.8757 44.0733 5.85995 44.1182 5.85995H44.6783C44.7233 5.85995 44.7616 5.8757 44.7931 5.90719C44.8246 5.93868 44.8403 5.97692 44.8403 6.02191V10.4892C44.8403 10.5342 44.8246 10.5724 44.7931 10.6039C44.7616 10.6354 44.7233 10.6511 44.6783 10.6511H44.1182ZM47.2875 10.7186C46.9276 10.7186 46.6239 10.6556 46.3765 10.5297C46.1336 10.4037 45.9469 10.226 45.8164 9.99655C45.6904 9.76712 45.6185 9.49944 45.6005 9.19353C45.596 9.11255 45.5937 9.01358 45.5937 8.89661C45.5937 8.77964 45.596 8.68067 45.6005 8.59969C45.6185 8.28928 45.6927 8.0216 45.8232 7.79667C45.9581 7.56723 46.1471 7.38953 46.39 7.26356C46.6374 7.1376 46.9366 7.07462 47.2875 7.07462C47.6384 7.07462 47.9353 7.1376 48.1782 7.26356C48.4257 7.38953 48.6146 7.56723 48.7451 7.79667C48.8801 8.0216 48.9565 8.28928 48.9745 8.59969C48.979 8.68067 48.9813 8.77964 48.9813 8.89661C48.9813 9.01358 48.979 9.11255 48.9745 9.19353C48.9565 9.49944 48.8823 9.76712 48.7518 9.99655C48.6259 10.226 48.4392 10.4037 48.1917 10.5297C47.9488 10.6556 47.6474 10.7186 47.2875 10.7186ZM47.2875 10.0505C47.5259 10.0505 47.7104 9.97631 47.8408 9.82785C47.9713 9.67489 48.0433 9.45221 48.0568 9.15979C48.0613 9.09231 48.0635 9.00458 48.0635 8.89661C48.0635 8.78864 48.0613 8.70091 48.0568 8.63343C48.0433 8.34551 47.9713 8.12507 47.8408 7.97212C47.7104 7.81916 47.5259 7.74268 47.2875 7.74268C47.0491 7.74268 46.8646 7.81916 46.7341 7.97212C46.6037 8.12507 46.5317 8.34551 46.5182 8.63343C46.5137 8.70091 46.5115 8.78864 46.5115 8.89661C46.5115 9.00458 46.5137 9.09231 46.5182 9.15979C46.5317 9.45221 46.6037 9.67489 46.7341 9.82785C46.8646 9.97631 47.0491 10.0505 47.2875 10.0505ZM50.7479 10.7186C50.514 10.7186 50.3025 10.6736 50.1136 10.5836C49.9246 10.4892 49.7739 10.3655 49.6615 10.2125C49.5535 10.055 49.4995 9.87959 49.4995 9.68614C49.4995 9.37123 49.6255 9.12155 49.8774 8.9371C50.1338 8.74815 50.4712 8.62219 50.8896 8.5592L51.8141 8.42424V8.28253C51.8141 8.09358 51.7669 7.94737 51.6724 7.8439C51.5779 7.74043 51.416 7.6887 51.1865 7.6887C51.0246 7.6887 50.8919 7.72244 50.7884 7.78992C50.6894 7.8529 50.6152 7.93838 50.5657 8.04635C50.5297 8.10483 50.478 8.13407 50.4105 8.13407H49.8774C49.8279 8.13407 49.7897 8.12058 49.7627 8.09358C49.7402 8.06659 49.7289 8.0306 49.7289 7.98561C49.7334 7.91363 49.7627 7.82591 49.8167 7.72244C49.8707 7.61897 49.9561 7.51999 50.0731 7.42552C50.1901 7.32655 50.3408 7.24332 50.5252 7.17584C50.7097 7.10836 50.9324 7.07462 51.1933 7.07462C51.4767 7.07462 51.7151 7.11061 51.9086 7.18259C52.1065 7.25007 52.264 7.34229 52.381 7.45926C52.4979 7.57623 52.5834 7.71344 52.6374 7.8709C52.6914 8.02835 52.7184 8.19481 52.7184 8.37026V10.4892C52.7184 10.5342 52.7026 10.5724 52.6711 10.6039C52.6396 10.6354 52.6014 10.6511 52.5564 10.6511H52.0098C51.9603 10.6511 51.9198 10.6354 51.8883 10.6039C51.8614 10.5724 51.8479 10.5342 51.8479 10.4892V10.226C51.7894 10.3115 51.7106 10.3924 51.6117 10.4689C51.5127 10.5409 51.3912 10.6016 51.2473 10.6511C51.1078 10.6961 50.9414 10.7186 50.7479 10.7186ZM50.9773 10.0775C51.1348 10.0775 51.2765 10.0438 51.4025 9.97631C51.5329 9.90883 51.6342 9.80536 51.7061 9.6659C51.7826 9.52194 51.8209 9.34199 51.8209 9.12605V8.98434L51.1461 9.09231C50.8806 9.13279 50.6827 9.19803 50.5522 9.288C50.4218 9.37798 50.3565 9.4882 50.3565 9.61866C50.3565 9.71763 50.3858 9.80311 50.4442 9.87509C50.5072 9.94257 50.586 9.99431 50.6804 10.0303C50.7749 10.0618 50.8739 10.0775 50.9773 10.0775ZM54.8865 10.7186C54.6525 10.7186 54.4456 10.6804 54.2656 10.6039C54.0902 10.5229 53.944 10.4104 53.827 10.2665C53.71 10.1225 53.6201 9.95382 53.5571 9.76037C53.4941 9.56243 53.4581 9.34649 53.4491 9.11255C53.4446 9.03157 53.4424 8.95959 53.4424 8.89661C53.4424 8.82913 53.4446 8.7549 53.4491 8.67392C53.4581 8.44898 53.4919 8.23979 53.5503 8.04635C53.6133 7.8529 53.7033 7.6842 53.8203 7.54024C53.9417 7.39178 54.0902 7.27706 54.2656 7.19608C54.4456 7.11511 54.6525 7.07462 54.8865 7.07462C55.1294 7.07462 55.3341 7.11735 55.5005 7.20283C55.6715 7.28381 55.8132 7.38953 55.9257 7.51999V6.02191C55.9257 5.97692 55.9392 5.93868 55.9662 5.90719C55.9977 5.8757 56.0381 5.85995 56.0876 5.85995H56.6612C56.7062 5.85995 56.7444 5.8757 56.7759 5.90719C56.8074 5.93868 56.8232 5.97692 56.8232 6.02191V10.4892C56.8232 10.5342 56.8074 10.5724 56.7759 10.6039C56.7444 10.6354 56.7062 10.6511 56.6612 10.6511H56.1281C56.0786 10.6511 56.0381 10.6354 56.0067 10.6039C55.9797 10.5724 55.9662 10.5342 55.9662 10.4892V10.2395C55.8537 10.3789 55.7097 10.4937 55.5343 10.5836C55.3633 10.6736 55.1474 10.7186 54.8865 10.7186ZM55.1361 9.99655C55.3251 9.99655 55.4758 9.95382 55.5883 9.86834C55.7007 9.78286 55.784 9.67489 55.8379 9.54443C55.8919 9.40947 55.9212 9.27226 55.9257 9.13279C55.9302 9.05182 55.9324 8.96634 55.9324 8.87637C55.9324 8.78189 55.9302 8.69417 55.9257 8.61319C55.9212 8.47823 55.8897 8.35001 55.8312 8.22855C55.7727 8.10258 55.6872 7.99911 55.5748 7.91813C55.4623 7.83715 55.3161 7.79667 55.1361 7.79667C54.9472 7.79667 54.7965 7.8394 54.684 7.92488C54.576 8.00586 54.4973 8.11383 54.4478 8.24879C54.3983 8.38375 54.3691 8.53221 54.3601 8.69417C54.3556 8.82913 54.3556 8.96409 54.3601 9.09905C54.3691 9.26101 54.3983 9.40947 54.4478 9.54443C54.4973 9.67939 54.576 9.78961 54.684 9.87509C54.7965 9.95607 54.9472 9.99655 55.1361 9.99655ZM60.8167 10.7186C60.4568 10.7186 60.1531 10.6556 59.9057 10.5297C59.6628 10.4037 59.4761 10.226 59.3456 9.99655C59.2196 9.76712 59.1477 9.49944 59.1297 9.19353C59.1252 9.11255 59.1229 9.01358 59.1229 8.89661C59.1229 8.77964 59.1252 8.68067 59.1297 8.59969C59.1477 8.28928 59.2219 8.0216 59.3524 7.79667C59.4873 7.56723 59.6763 7.38953 59.9192 7.26356C60.1666 7.1376 60.4658 7.07462 60.8167 7.07462C61.1676 7.07462 61.4645 7.1376 61.7074 7.26356C61.9549 7.38953 62.1438 7.56723 62.2743 7.79667C62.4093 8.0216 62.4857 8.28928 62.5037 8.59969C62.5082 8.68067 62.5105 8.77964 62.5105 8.89661C62.5105 9.01358 62.5082 9.11255 62.5037 9.19353C62.4857 9.49944 62.4115 9.76712 62.281 9.99655C62.1551 10.226 61.9684 10.4037 61.7209 10.5297C61.478 10.6556 61.1766 10.7186 60.8167 10.7186ZM60.8167 10.0505C61.0551 10.0505 61.2396 9.97631 61.37 9.82785C61.5005 9.67489 61.5725 9.45221 61.586 9.15979C61.5905 9.09231 61.5927 9.00458 61.5927 8.89661C61.5927 8.78864 61.5905 8.70091 61.586 8.63343C61.5725 8.34551 61.5005 8.12507 61.37 7.97212C61.2396 7.81916 61.0551 7.74268 60.8167 7.74268C60.5783 7.74268 60.3938 7.81916 60.2633 7.97212C60.1329 8.12507 60.0609 8.34551 60.0474 8.63343C60.0429 8.70091 60.0407 8.78864 60.0407 8.89661C60.0407 9.00458 60.0429 9.09231 60.0474 9.15979C60.0609 9.45221 60.1329 9.67489 60.2633 9.82785C60.3938 9.97631 60.5783 10.0505 60.8167 10.0505ZM63.4201 10.6511C63.3751 10.6511 63.3369 10.6354 63.3054 10.6039C63.2739 10.5724 63.2581 10.5342 63.2581 10.4892V7.30405C63.2581 7.25907 63.2739 7.22083 63.3054 7.18933C63.3369 7.15784 63.3751 7.1421 63.4201 7.1421H63.9734C64.0184 7.1421 64.0567 7.15784 64.0882 7.18933C64.1197 7.22083 64.1354 7.25907 64.1354 7.30405V7.58073C64.2524 7.43677 64.4008 7.31755 64.5808 7.22308C64.7652 7.1241 64.9924 7.07462 65.2623 7.07462C65.5368 7.07462 65.7752 7.1376 65.9776 7.26356C66.1801 7.38503 66.3353 7.55823 66.4433 7.78317C66.5557 8.00811 66.612 8.27803 66.612 8.59294V10.4892C66.612 10.5342 66.5962 10.5724 66.5647 10.6039C66.5332 10.6354 66.495 10.6511 66.45 10.6511H65.8562C65.8112 10.6511 65.7729 10.6354 65.7415 10.6039C65.71 10.5724 65.6942 10.5342 65.6942 10.4892V8.63343C65.6942 8.37251 65.629 8.16781 65.4985 8.01935C65.3726 7.8709 65.1881 7.79667 64.9452 7.79667C64.7112 7.79667 64.5245 7.8709 64.3851 8.01935C64.2456 8.16781 64.1759 8.37251 64.1759 8.63343V10.4892C64.1759 10.5342 64.1601 10.5724 64.1287 10.6039C64.0972 10.6354 64.0589 10.6511 64.0139 10.6511H63.4201ZM70.4586 10.6511C70.1887 10.6511 69.9615 10.6039 69.777 10.5094C69.5926 10.4149 69.4554 10.2755 69.3654 10.091C69.2754 9.90208 69.2304 9.66815 69.2304 9.38922V7.8574H68.6973C68.6524 7.8574 68.6141 7.84165 68.5826 7.81016C68.5511 7.77867 68.5354 7.74043 68.5354 7.69544V7.30405C68.5354 7.25907 68.5511 7.22083 68.5826 7.18933C68.6141 7.15784 68.6524 7.1421 68.6973 7.1421H69.2304V6.02191C69.2304 5.97692 69.2439 5.93868 69.2709 5.90719C69.3024 5.8757 69.3429 5.85995 69.3924 5.85995H69.939C69.984 5.85995 70.0222 5.8757 70.0537 5.90719C70.0852 5.93868 70.101 5.97692 70.101 6.02191V7.1421H70.9445C70.9895 7.1421 71.0277 7.15784 71.0592 7.18933C71.0907 7.22083 71.1064 7.25907 71.1064 7.30405V7.69544C71.1064 7.74043 71.0907 7.77867 71.0592 7.81016C71.0277 7.84165 70.9895 7.8574 70.9445 7.8574H70.101V9.32174C70.101 9.50619 70.1324 9.65015 70.1954 9.75362C70.2629 9.85709 70.3776 9.90883 70.5396 9.90883H71.0052C71.0502 9.90883 71.0884 9.92457 71.1199 9.95607C71.1514 9.98756 71.1672 10.0258 71.1672 10.0708V10.4892C71.1672 10.5342 71.1514 10.5724 71.1199 10.6039C71.0884 10.6354 71.0502 10.6511 71.0052 10.6511H70.4586ZM71.9345 10.6511C71.8895 10.6511 71.8513 10.6354 71.8198 10.6039C71.7883 10.5724 71.7725 10.5342 71.7725 10.4892V6.02191C71.7725 5.97692 71.7883 5.93868 71.8198 5.90719C71.8513 5.8757 71.8895 5.85995 71.9345 5.85995H72.5351C72.5846 5.85995 72.6228 5.8757 72.6498 5.90719C72.6813 5.93868 72.697 5.97692 72.697 6.02191V7.56048C72.8185 7.41652 72.967 7.29955 73.1424 7.20958C73.3179 7.1196 73.5338 7.07462 73.7902 7.07462C74.0647 7.07462 74.3031 7.1376 74.5055 7.26356C74.7125 7.38503 74.8722 7.55823 74.9846 7.78317C75.0971 8.00811 75.1534 8.27803 75.1534 8.59294V10.4892C75.1534 10.5342 75.1376 10.5724 75.1061 10.6039C75.0746 10.6354 75.0364 10.6511 74.9914 10.6511H74.3841C74.3391 10.6511 74.3008 10.6354 74.2693 10.6039C74.2379 10.5724 74.2221 10.5342 74.2221 10.4892V8.63343C74.2221 8.37251 74.1569 8.16781 74.0264 8.01935C73.9004 7.8709 73.716 7.79667 73.4731 7.79667C73.2391 7.79667 73.0502 7.8709 72.9062 8.01935C72.7668 8.16781 72.697 8.37251 72.697 8.63343V10.4892C72.697 10.5342 72.6813 10.5724 72.6498 10.6039C72.6228 10.6354 72.5846 10.6511 72.5351 10.6511H71.9345ZM77.5213 10.7186C77.0219 10.7186 76.6261 10.5746 76.3336 10.2867C76.0412 9.9988 75.8838 9.58942 75.8613 9.05857C75.8568 9.01358 75.8545 8.95734 75.8545 8.88986C75.8545 8.81788 75.8568 8.76165 75.8613 8.72116C75.8793 8.38375 75.9557 8.09133 76.0907 7.8439C76.2302 7.59647 76.4214 7.40752 76.6643 7.27706C76.9072 7.1421 77.1929 7.07462 77.5213 7.07462C77.8857 7.07462 78.1916 7.1511 78.4391 7.30405C78.6865 7.45251 78.8732 7.6617 78.9991 7.93163C79.1251 8.19705 79.1881 8.50522 79.1881 8.85612V8.99783C79.1881 9.04282 79.1724 9.08106 79.1409 9.11255C79.1094 9.14404 79.0689 9.15979 79.0194 9.15979H76.779C76.779 9.15979 76.779 9.16654 76.779 9.18003C76.779 9.19353 76.779 9.20477 76.779 9.21377C76.7835 9.37123 76.8128 9.51744 76.8667 9.6524C76.9252 9.78286 77.0085 9.88858 77.1164 9.96956C77.2289 10.0505 77.3616 10.091 77.5146 10.091C77.6405 10.091 77.7462 10.073 77.8317 10.037C77.9172 9.99655 77.9869 9.95157 78.0409 9.90208C78.0949 9.85259 78.1331 9.81211 78.1556 9.78061C78.1961 9.72663 78.2276 9.69514 78.2501 9.68614C78.2771 9.67264 78.3153 9.6659 78.3648 9.6659H78.9452C78.9902 9.6659 79.0261 9.67939 79.0531 9.70639C79.0846 9.73338 79.0981 9.76712 79.0936 9.80761C79.0891 9.87959 79.0509 9.96731 78.9789 10.0708C78.9114 10.1743 78.8125 10.2755 78.682 10.3744C78.5515 10.4734 78.3873 10.5566 78.1894 10.6241C77.9959 10.6871 77.7732 10.7186 77.5213 10.7186ZM76.779 8.59294H78.2704V8.5727C78.2704 8.39725 78.2411 8.24429 78.1826 8.11383C78.1241 7.98336 78.0387 7.87989 77.9262 7.80341C77.8137 7.72694 77.6788 7.6887 77.5213 7.6887C77.3639 7.6887 77.2289 7.72694 77.1164 7.80341C77.004 7.87989 76.9185 7.98336 76.86 8.11383C76.806 8.24429 76.779 8.39725 76.779 8.5727V8.59294Z" fill="black"/>
<path d="M25.6187 23.4186C25.5425 23.4186 25.471 23.39 25.4042 23.3328C25.347 23.2756 25.3184 23.204 25.3184 23.1182C25.3184 23.0801 25.3279 23.0372 25.347 22.9895L28.7938 13.7646C28.8224 13.6693 28.8749 13.5882 28.9511 13.5215C29.037 13.4452 29.1514 13.4071 29.2944 13.4071H30.8533C30.9964 13.4071 31.106 13.4452 31.1823 13.5215C31.2586 13.5882 31.3158 13.6693 31.3539 13.7646L34.8007 22.9895C34.8103 23.0372 34.815 23.0801 34.815 23.1182C34.815 23.204 34.7864 23.2756 34.7292 23.3328C34.672 23.39 34.6053 23.4186 34.529 23.4186H33.2847C33.1512 23.4186 33.0511 23.39 32.9844 23.3328C32.9272 23.266 32.889 23.204 32.8699 23.1468L32.1977 21.402H27.95L27.2778 23.1468C27.2587 23.204 27.2158 23.266 27.1491 23.3328C27.0919 23.39 26.9965 23.4186 26.863 23.4186H25.6187ZM28.4506 19.7572H31.6972L30.0667 15.3379L28.4506 19.7572ZM35.3351 26.136C35.2397 26.136 35.1587 26.1026 35.0919 26.0359C35.0252 25.9691 34.9918 25.8881 34.9918 25.7927V16.3247C34.9918 16.2294 35.0252 16.1483 35.0919 16.0816C35.1587 16.0148 35.2397 15.9814 35.3351 15.9814H36.4649C36.5698 15.9814 36.6509 16.0148 36.7081 16.0816C36.7748 16.1483 36.8082 16.2294 36.8082 16.3247V16.8968C37.037 16.5917 37.3374 16.339 37.7092 16.1388C38.0811 15.9385 38.5435 15.8384 39.0965 15.8384C39.6019 15.8384 40.0405 15.9195 40.4123 16.0816C40.7842 16.2437 41.0941 16.4773 41.342 16.7824C41.5899 17.0779 41.7806 17.4307 41.9141 17.8407C42.0475 18.2507 42.1238 18.7036 42.1429 19.1994C42.1524 19.3615 42.1572 19.5284 42.1572 19.7C42.1572 19.8716 42.1524 20.0433 42.1429 20.2149C42.1334 20.6916 42.0618 21.135 41.9284 21.545C41.7949 21.9455 41.5994 22.2982 41.342 22.6034C41.0941 22.8989 40.7842 23.1325 40.4123 23.3042C40.0405 23.4758 39.6019 23.5616 39.0965 23.5616C38.5816 23.5616 38.143 23.471 37.7807 23.2899C37.4184 23.0992 37.1228 22.8513 36.894 22.5461V25.7927C36.894 25.8881 36.8606 25.9691 36.7939 26.0359C36.7367 26.1026 36.6556 26.136 36.5507 26.136H35.3351ZM38.5673 22.0313C38.9773 22.0313 39.2968 21.9455 39.5256 21.7738C39.7544 21.5927 39.9165 21.3591 40.0119 21.073C40.1167 20.787 40.1787 20.4723 40.1978 20.1291C40.2169 19.843 40.2169 19.557 40.1978 19.2709C40.1787 18.9277 40.1167 18.613 40.0119 18.327C39.9165 18.041 39.7544 17.8121 39.5256 17.6405C39.2968 17.4593 38.9773 17.3688 38.5673 17.3688C38.1764 17.3688 37.857 17.4593 37.6091 17.6405C37.3707 17.8217 37.1943 18.0553 37.0799 18.3413C36.975 18.6178 36.9131 18.9039 36.894 19.1994C36.8845 19.3711 36.8797 19.5522 36.8797 19.7429C36.8797 19.9336 36.8845 20.1195 36.894 20.3007C36.9035 20.5867 36.9703 20.8633 37.0942 21.1302C37.2182 21.3877 37.3993 21.6022 37.6377 21.7738C37.8761 21.9455 38.186 22.0313 38.5673 22.0313ZM43.1191 26.136C43.0238 26.136 42.9427 26.1026 42.876 26.0359C42.8092 25.9691 42.7759 25.8881 42.7759 25.7927V16.3247C42.7759 16.2294 42.8092 16.1483 42.876 16.0816C42.9427 16.0148 43.0238 15.9814 43.1191 15.9814H44.249C44.3539 15.9814 44.4349 16.0148 44.4921 16.0816C44.5589 16.1483 44.5922 16.2294 44.5922 16.3247V16.8968C44.8211 16.5917 45.1214 16.339 45.4933 16.1388C45.8651 15.9385 46.3276 15.8384 46.8806 15.8384C47.3859 15.8384 47.8245 15.9195 48.1964 16.0816C48.5683 16.2437 48.8781 16.4773 49.126 16.7824C49.3739 17.0779 49.5646 17.4307 49.6981 17.8407C49.8316 18.2507 49.9079 18.7036 49.927 19.1994C49.9365 19.3615 49.9413 19.5284 49.9413 19.7C49.9413 19.8716 49.9365 20.0433 49.927 20.2149C49.9174 20.6916 49.8459 21.135 49.7124 21.545C49.5789 21.9455 49.3835 22.2982 49.126 22.6034C48.8781 22.8989 48.5683 23.1325 48.1964 23.3042C47.8245 23.4758 47.3859 23.5616 46.8806 23.5616C46.3657 23.5616 45.9271 23.471 45.5648 23.2899C45.2025 23.0992 44.9069 22.8513 44.6781 22.5461V25.7927C44.6781 25.8881 44.6447 25.9691 44.5779 26.0359C44.5207 26.1026 44.4397 26.136 44.3348 26.136H43.1191ZM46.3514 22.0313C46.7614 22.0313 47.0808 21.9455 47.3097 21.7738C47.5385 21.5927 47.7006 21.3591 47.7959 21.073C47.9008 20.787 47.9628 20.4723 47.9819 20.1291C48.0009 19.843 48.0009 19.557 47.9819 19.2709C47.9628 18.9277 47.9008 18.613 47.7959 18.327C47.7006 18.041 47.5385 17.8121 47.3097 17.6405C47.0808 17.4593 46.7614 17.3688 46.3514 17.3688C45.9605 17.3688 45.6411 17.4593 45.3932 17.6405C45.1548 17.8217 44.9784 18.0553 44.864 18.3413C44.7591 18.6178 44.6971 18.9039 44.6781 19.1994C44.6685 19.3711 44.6638 19.5522 44.6638 19.7429C44.6638 19.9336 44.6685 20.1195 44.6781 20.3007C44.6876 20.5867 44.7543 20.8633 44.8783 21.1302C45.0022 21.3877 45.1834 21.6022 45.4218 21.7738C45.6601 21.9455 45.97 22.0313 46.3514 22.0313ZM56.4598 23.5616C55.5731 23.5616 54.8294 23.4329 54.2287 23.1754C53.6375 22.9085 53.1846 22.5652 52.87 22.1457C52.5649 21.7166 52.4028 21.2685 52.3837 20.8013C52.3837 20.7155 52.4123 20.644 52.4695 20.5867C52.5267 20.5295 52.5982 20.5009 52.684 20.5009H53.9569C54.0809 20.5009 54.1715 20.5295 54.2287 20.5867C54.2954 20.6344 54.3526 20.6964 54.4003 20.7727C54.4575 20.9538 54.5672 21.135 54.7293 21.3162C54.8913 21.4878 55.1106 21.6308 55.3872 21.7452C55.6732 21.8596 56.0307 21.9169 56.4598 21.9169C57.1463 21.9169 57.6564 21.8024 57.9901 21.5736C58.3334 21.3448 58.505 21.0349 58.505 20.644C58.505 20.3674 58.4144 20.1481 58.2333 19.9861C58.0521 19.8144 57.7708 19.6619 57.3895 19.5284C57.0176 19.3854 56.5218 19.2376 55.902 19.085C55.1869 18.9134 54.5862 18.7084 54.1 18.47C53.6232 18.2221 53.2609 17.9122 53.013 17.5404C52.7746 17.1685 52.6554 16.6966 52.6554 16.1245C52.6554 15.5715 52.8032 15.0804 53.0988 14.6513C53.4039 14.2223 53.833 13.8838 54.386 13.6359C54.9486 13.388 55.616 13.264 56.3883 13.264C57.0081 13.264 57.5563 13.3498 58.0331 13.5215C58.5098 13.6836 58.9055 13.9029 59.2201 14.1794C59.5348 14.4463 59.7732 14.7372 59.9352 15.0518C60.1069 15.3569 60.1974 15.6573 60.207 15.9528C60.207 16.0291 60.1784 16.1006 60.1212 16.1674C60.0735 16.2246 60.002 16.2532 59.9066 16.2532H58.5765C58.5003 16.2532 58.424 16.2341 58.3477 16.196C58.2714 16.1578 58.2094 16.0863 58.1618 15.9814C58.1046 15.6859 57.9186 15.4332 57.604 15.2234C57.2893 15.0137 56.8841 14.9088 56.3883 14.9088C55.8734 14.9088 55.4587 15.0041 55.144 15.1948C54.8294 15.3855 54.672 15.6811 54.672 16.0816C54.672 16.3485 54.7483 16.5726 54.9009 16.7538C55.063 16.9254 55.3156 17.0779 55.6589 17.2114C56.0117 17.3449 56.4741 17.4879 57.0462 17.6405C57.8567 17.8217 58.5193 18.0314 59.0342 18.2698C59.5491 18.5082 59.9257 18.8133 60.1641 19.1851C60.4024 19.5475 60.5216 20.0099 60.5216 20.5724C60.5216 21.2017 60.35 21.7405 60.0068 22.1886C59.673 22.6272 59.2011 22.9657 58.5908 23.204C57.9806 23.4424 57.2703 23.5616 56.4598 23.5616ZM64.3489 23.4186C63.7768 23.4186 63.2953 23.3185 62.9044 23.1182C62.5135 22.918 62.2227 22.6224 62.032 22.2315C61.8413 21.831 61.7459 21.3352 61.7459 20.7441V17.4975H60.616C60.5207 17.4975 60.4397 17.4641 60.3729 17.3974C60.3062 17.3306 60.2728 17.2496 60.2728 17.1542V16.3247C60.2728 16.2294 60.3062 16.1483 60.3729 16.0816C60.4397 16.0148 60.5207 15.9814 60.616 15.9814H61.7459V13.6073C61.7459 13.5119 61.7745 13.4309 61.8317 13.3642C61.8985 13.2974 61.9843 13.264 62.0892 13.264H63.2476C63.343 13.264 63.424 13.2974 63.4908 13.3642C63.5575 13.4309 63.5909 13.5119 63.5909 13.6073V15.9814H65.3787C65.474 15.9814 65.5551 16.0148 65.6218 16.0816C65.6886 16.1483 65.7219 16.2294 65.7219 16.3247V17.1542C65.7219 17.2496 65.6886 17.3306 65.6218 17.3974C65.5551 17.4641 65.474 17.4975 65.3787 17.4975H63.5909V20.6011C63.5909 20.992 63.6576 21.2971 63.7911 21.5164C63.9342 21.7357 64.1773 21.8453 64.5205 21.8453H65.5074C65.6027 21.8453 65.6838 21.8787 65.7505 21.9455C65.8173 22.0122 65.8506 22.0932 65.8506 22.1886V23.0753C65.8506 23.1707 65.8173 23.2517 65.7505 23.3185C65.6838 23.3852 65.6027 23.4186 65.5074 23.4186H64.3489ZM69.4078 23.5616C68.645 23.5616 68.0014 23.4281 67.477 23.1611C66.9621 22.8942 66.5664 22.5175 66.2899 22.0313C66.0229 21.545 65.8703 20.9777 65.8322 20.3293C65.8227 20.1577 65.8179 19.9479 65.8179 19.7C65.8179 19.4521 65.8227 19.2423 65.8322 19.0707C65.8703 18.4128 66.0277 17.8455 66.3042 17.3688C66.5902 16.8825 66.9907 16.5059 67.5056 16.2389C68.03 15.9719 68.664 15.8384 69.4078 15.8384C70.1515 15.8384 70.7808 15.9719 71.2956 16.2389C71.8201 16.5059 72.2205 16.8825 72.497 17.3688C72.7831 17.8455 72.9452 18.4128 72.9833 19.0707C72.9928 19.2423 72.9976 19.4521 72.9976 19.7C72.9976 19.9479 72.9928 20.1577 72.9833 20.3293C72.9452 20.9777 72.7878 21.545 72.5113 22.0313C72.2444 22.5175 71.8487 22.8942 71.3242 23.1611C70.8094 23.4281 70.1705 23.5616 69.4078 23.5616ZM69.4078 22.1457C69.9131 22.1457 70.304 21.9884 70.5805 21.6737C70.857 21.3495 71.0096 20.8776 71.0382 20.2578C71.0477 20.1148 71.0525 19.9288 71.0525 19.7C71.0525 19.4712 71.0477 19.2853 71.0382 19.1422C71.0096 18.532 70.857 18.0648 70.5805 17.7406C70.304 17.4164 69.9131 17.2543 69.4078 17.2543C68.9024 17.2543 68.5115 17.4164 68.235 17.7406C67.9585 18.0648 67.8059 18.532 67.7773 19.1422C67.7678 19.2853 67.763 19.4712 67.763 19.7C67.763 19.9288 67.7678 20.1148 67.7773 20.2578C67.8059 20.8776 67.9585 21.3495 68.235 21.6737C68.5115 21.9884 68.9024 22.1457 69.4078 22.1457ZM73.9243 23.4186C73.829 23.4186 73.7479 23.3852 73.6812 23.3185C73.6144 23.2517 73.5811 23.1707 73.5811 23.0753V16.339C73.5811 16.2341 73.6144 16.1483 73.6812 16.0816C73.7479 16.0148 73.829 15.9814 73.9243 15.9814H75.0828C75.1782 15.9814 75.2592 16.0148 75.3259 16.0816C75.4022 16.1483 75.4404 16.2341 75.4404 16.339V16.9254C75.6597 16.6203 75.9409 16.3867 76.2842 16.2246C76.637 16.0625 77.0422 15.9814 77.4999 15.9814H78.0863C78.1911 15.9814 78.2722 16.0148 78.3294 16.0816C78.3961 16.1483 78.4295 16.2294 78.4295 16.3247V17.3545C78.4295 17.4498 78.3961 17.5309 78.3294 17.5976C78.2722 17.6643 78.1911 17.6977 78.0863 17.6977H76.9707C76.513 17.6977 76.1555 17.8264 75.898 18.0839C75.6501 18.3413 75.5262 18.6941 75.5262 19.1422V23.0753C75.5262 23.1707 75.4928 23.2517 75.4261 23.3185C75.3593 23.3852 75.2735 23.4186 75.1686 23.4186H73.9243ZM81.6497 23.5616C80.5914 23.5616 79.7523 23.2565 79.1326 22.6463C78.5128 22.036 78.1791 21.1684 78.1314 20.0433C78.1219 19.9479 78.1171 19.8287 78.1171 19.6857C78.1171 19.5332 78.1219 19.414 78.1314 19.3282C78.1695 18.613 78.3316 17.9933 78.6177 17.4689C78.9133 16.9445 79.3185 16.544 79.8334 16.2675C80.3482 15.9814 80.9537 15.8384 81.6497 15.8384C82.4221 15.8384 83.0704 16.0005 83.5948 16.3247C84.1192 16.6393 84.5149 17.0827 84.7819 17.6548C85.0489 18.2174 85.1824 18.8705 85.1824 19.6142V19.9145C85.1824 20.0099 85.149 20.0909 85.0823 20.1577C85.0155 20.2244 84.9297 20.2578 84.8248 20.2578H80.0765C80.0765 20.2578 80.0765 20.2721 80.0765 20.3007C80.0765 20.3293 80.0765 20.3531 80.0765 20.3722C80.086 20.7059 80.148 21.0158 80.2624 21.3019C80.3864 21.5784 80.5628 21.8024 80.7916 21.9741C81.03 22.1457 81.3113 22.2315 81.6354 22.2315C81.9024 22.2315 82.1265 22.1934 82.3076 22.1171C82.4888 22.0313 82.6366 21.9359 82.751 21.831C82.8654 21.7262 82.9465 21.6403 82.9941 21.5736C83.08 21.4592 83.1467 21.3924 83.1944 21.3734C83.2516 21.3448 83.3326 21.3305 83.4375 21.3305H84.6675C84.7628 21.3305 84.8391 21.3591 84.8963 21.4163C84.9631 21.4735 84.9917 21.545 84.9821 21.6308C84.9726 21.7834 84.8916 21.9693 84.739 22.1886C84.596 22.4079 84.3862 22.6224 84.1097 22.8322C83.8332 23.042 83.4852 23.2183 83.0657 23.3614C82.6557 23.4949 82.1837 23.5616 81.6497 23.5616ZM80.0765 19.0564H83.2373V19.0135C83.2373 18.6417 83.1753 18.3175 83.0514 18.041C82.9274 17.7645 82.7462 17.5452 82.5079 17.3831C82.2695 17.221 81.9835 17.1399 81.6497 17.1399C81.316 17.1399 81.03 17.221 80.7916 17.3831C80.5532 17.5452 80.3721 17.7645 80.2481 18.041C80.1337 18.3175 80.0765 18.6417 80.0765 19.0135V19.0564Z" fill="black"/>
</svg>
