<svg width="96" height="32" viewBox="0 0 96 32" fill="none" xmlns="http://www.w3.org/2000/svg">
<rect x="0.27907" y="0.27907" width="95.4419" height="31.4419" rx="7.72093" fill="white"/>
<rect x="0.27907" y="0.27907" width="95.4419" height="31.4419" rx="7.72093" stroke="black" stroke-width="0.55814"/>
<path d="M19.0027 18.8377C21.1452 17.6402 22.7836 16.7278 22.9237 16.6565C23.3718 16.4142 23.8339 15.7726 22.9237 15.2737C22.6296 15.1169 21.0472 14.233 19.0027 13.0925L16.188 15.9722L19.0027 18.8377Z" fill="#FFD400"/>
<path d="M16.188 15.9723L7.19775 25.1958C7.40781 25.2244 7.64587 25.1673 7.92594 25.0105C8.51408 24.6826 14.7596 21.2042 19.0027 18.8377L16.188 15.9723Z" fill="#FF3333"/>
<path d="M16.1878 15.9723L19.0025 13.0926C19.0025 13.0926 8.55594 7.29044 7.92578 6.9483C7.68772 6.80574 7.42165 6.76297 7.18359 6.80574L16.1878 15.9723Z" fill="#48FF48"/>
<path d="M16.1881 15.9722L7.18389 6.80566C6.8198 6.8912 6.51172 7.21909 6.51172 7.88911C6.51172 8.9583 6.51172 23.2142 6.51172 24.1123C6.51172 24.7253 6.74978 25.1672 7.19789 25.21L16.1881 15.9722Z" fill="#3BCCFF"/>
<path d="M30.46 10.7186C30.0461 10.7186 29.693 10.6466 29.4005 10.5027C29.1126 10.3587 28.8877 10.1518 28.7257 9.88184C28.5683 9.60741 28.4828 9.28125 28.4693 8.90336C28.4648 8.70991 28.4625 8.50297 28.4625 8.28253C28.4625 8.05759 28.4648 7.84615 28.4693 7.64821C28.4828 7.27481 28.5683 6.9554 28.7257 6.68997C28.8877 6.42455 29.1149 6.21985 29.4073 6.07589C29.7042 5.93193 30.0551 5.85995 30.46 5.85995C30.7884 5.85995 31.0763 5.90494 31.3237 5.99492C31.5712 6.08039 31.7759 6.19286 31.9378 6.33232C32.1043 6.46729 32.228 6.61349 32.309 6.77095C32.3945 6.92841 32.4394 7.07462 32.4439 7.20958C32.4484 7.25007 32.4372 7.28381 32.4102 7.3108C32.3832 7.33779 32.3472 7.35129 32.3022 7.35129H31.6072C31.5622 7.35129 31.5284 7.34229 31.5059 7.3243C31.4835 7.3063 31.4632 7.27931 31.4452 7.24332C31.4092 7.14885 31.353 7.05662 31.2765 6.96665C31.2 6.87217 31.0966 6.79344 30.9661 6.73046C30.8356 6.66748 30.6669 6.63599 30.46 6.63599C30.1541 6.63599 29.9089 6.71697 29.7244 6.87892C29.5445 7.04088 29.4478 7.30855 29.4343 7.68195C29.4208 8.07334 29.4208 8.46923 29.4343 8.86962C29.4478 9.25201 29.5467 9.52644 29.7312 9.69289C29.9201 9.85934 30.1676 9.94257 30.4735 9.94257C30.6759 9.94257 30.8559 9.90658 31.0133 9.8346C31.1753 9.76262 31.3013 9.65015 31.3912 9.49719C31.4857 9.34424 31.5329 9.14854 31.5329 8.91011V8.70091H30.7097C30.6647 8.70091 30.6264 8.68517 30.595 8.65368C30.5635 8.62219 30.5477 8.5817 30.5477 8.53221V8.17456C30.5477 8.12507 30.5635 8.08459 30.595 8.05309C30.6264 8.0216 30.6647 8.00586 30.7097 8.00586H32.3225C32.372 8.00586 32.4102 8.0216 32.4372 8.05309C32.4687 8.08459 32.4844 8.12507 32.4844 8.17456V8.88311C32.4844 9.26101 32.4012 9.58717 32.2347 9.86159C32.0728 10.136 31.8389 10.3475 31.5329 10.4959C31.2315 10.6444 30.8739 10.7186 30.46 10.7186ZM34.7801 10.7186C34.2807 10.7186 33.8849 10.5746 33.5924 10.2867C33.3 9.9988 33.1426 9.58942 33.1201 9.05857C33.1156 9.01358 33.1133 8.95734 33.1133 8.88986C33.1133 8.81788 33.1156 8.76165 33.1201 8.72116C33.1381 8.38375 33.2145 8.09133 33.3495 7.8439C33.489 7.59647 33.6802 7.40752 33.9231 7.27706C34.166 7.1421 34.4517 7.07462 34.7801 7.07462C35.1445 7.07462 35.4504 7.1511 35.6979 7.30405C35.9453 7.45251 36.132 7.6617 36.2579 7.93163C36.3839 8.19705 36.4469 8.50522 36.4469 8.85612V8.99783C36.4469 9.04282 36.4311 9.08106 36.3997 9.11255C36.3682 9.14404 36.3277 9.15979 36.2782 9.15979H34.0378C34.0378 9.15979 34.0378 9.16654 34.0378 9.18003C34.0378 9.19353 34.0378 9.20477 34.0378 9.21377C34.0423 9.37123 34.0716 9.51744 34.1255 9.6524C34.184 9.78286 34.2672 9.88858 34.3752 9.96956C34.4877 10.0505 34.6204 10.091 34.7734 10.091C34.8993 10.091 35.005 10.073 35.0905 10.037C35.176 9.99655 35.2457 9.95157 35.2997 9.90208C35.3537 9.85259 35.3919 9.81211 35.4144 9.78061C35.4549 9.72663 35.4864 9.69514 35.5089 9.68614C35.5359 9.67264 35.5741 9.6659 35.6236 9.6659H36.204C36.2489 9.6659 36.2849 9.67939 36.3119 9.70639C36.3434 9.73338 36.3569 9.76712 36.3524 9.80761C36.3479 9.87959 36.3097 9.96731 36.2377 10.0708C36.1702 10.1743 36.0712 10.2755 35.9408 10.3744C35.8103 10.4734 35.6461 10.5566 35.4482 10.6241C35.2547 10.6871 35.032 10.7186 34.7801 10.7186ZM34.0378 8.59294H35.5291V8.5727C35.5291 8.39725 35.4999 8.24429 35.4414 8.11383C35.3829 7.98336 35.2975 7.87989 35.185 7.80341C35.0725 7.72694 34.9376 7.6887 34.7801 7.6887C34.6227 7.6887 34.4877 7.72694 34.3752 7.80341C34.2628 7.87989 34.1773 7.98336 34.1188 8.11383C34.0648 8.24429 34.0378 8.39725 34.0378 8.5727V8.59294ZM38.7358 10.6511C38.4659 10.6511 38.2387 10.6039 38.0543 10.5094C37.8698 10.4149 37.7326 10.2755 37.6426 10.091C37.5527 9.90208 37.5077 9.66815 37.5077 9.38922V7.8574H36.9746C36.9296 7.8574 36.8913 7.84165 36.8598 7.81016C36.8284 7.77867 36.8126 7.74043 36.8126 7.69544V7.30405C36.8126 7.25907 36.8284 7.22083 36.8598 7.18933C36.8913 7.15784 36.9296 7.1421 36.9746 7.1421H37.5077V6.02191C37.5077 5.97692 37.5212 5.93868 37.5482 5.90719C37.5796 5.8757 37.6201 5.85995 37.6696 5.85995H38.2162C38.2612 5.85995 38.2994 5.8757 38.3309 5.90719C38.3624 5.93868 38.3782 5.97692 38.3782 6.02191V7.1421H39.2217C39.2667 7.1421 39.3049 7.15784 39.3364 7.18933C39.3679 7.22083 39.3836 7.25907 39.3836 7.30405V7.69544C39.3836 7.74043 39.3679 7.77867 39.3364 7.81016C39.3049 7.84165 39.2667 7.8574 39.2217 7.8574H38.3782V9.32174C38.3782 9.50619 38.4097 9.65015 38.4726 9.75362C38.5401 9.85709 38.6548 9.90883 38.8168 9.90883H39.2824C39.3274 9.90883 39.3657 9.92457 39.3971 9.95607C39.4286 9.98756 39.4444 10.0258 39.4444 10.0708V10.4892C39.4444 10.5342 39.4286 10.5724 39.3971 10.6039C39.3657 10.6354 39.3274 10.6511 39.2824 10.6511H38.7358ZM41.747 10.6511C41.702 10.6511 41.6638 10.6354 41.6323 10.6039C41.6008 10.5724 41.5851 10.5342 41.5851 10.4892V7.30405C41.5851 7.25907 41.6008 7.22083 41.6323 7.18933C41.6638 7.15784 41.702 7.1421 41.747 7.1421H42.3071C42.3566 7.1421 42.3948 7.15784 42.4218 7.18933C42.4533 7.22083 42.4691 7.25907 42.4691 7.30405V10.4892C42.4691 10.5342 42.4533 10.5724 42.4218 10.6039C42.3948 10.6354 42.3566 10.6511 42.3071 10.6511H41.747ZM41.72 6.56176C41.6705 6.56176 41.6301 6.54826 41.5986 6.52127C41.5716 6.48978 41.5581 6.44929 41.5581 6.3998V5.91394C41.5581 5.86895 41.5716 5.83071 41.5986 5.79922C41.6301 5.76773 41.6705 5.75198 41.72 5.75198H42.3341C42.3836 5.75198 42.4241 5.76773 42.4556 5.79922C42.4871 5.83071 42.5028 5.86895 42.5028 5.91394V6.3998C42.5028 6.44929 42.4871 6.48978 42.4556 6.52127C42.4241 6.54826 42.3836 6.56176 42.3341 6.56176H41.72ZM44.9502 10.6511C44.6802 10.6511 44.4531 10.6039 44.2686 10.5094C44.0842 10.4149 43.9469 10.2755 43.857 10.091C43.767 9.90208 43.722 9.66815 43.722 9.38922V7.8574H43.1889C43.1439 7.8574 43.1057 7.84165 43.0742 7.81016C43.0427 7.77867 43.0269 7.74043 43.0269 7.69544V7.30405C43.0269 7.25907 43.0427 7.22083 43.0742 7.18933C43.1057 7.15784 43.1439 7.1421 43.1889 7.1421H43.722V6.02191C43.722 5.97692 43.7355 5.93868 43.7625 5.90719C43.794 5.8757 43.8345 5.85995 43.884 5.85995H44.4306C44.4755 5.85995 44.5138 5.8757 44.5453 5.90719C44.5768 5.93868 44.5925 5.97692 44.5925 6.02191V7.1421H45.436C45.481 7.1421 45.5193 7.15784 45.5507 7.18933C45.5822 7.22083 45.598 7.25907 45.598 7.30405V7.69544C45.598 7.74043 45.5822 7.77867 45.5507 7.81016C45.5193 7.84165 45.481 7.8574 45.436 7.8574H44.5925V9.32174C44.5925 9.50619 44.624 9.65015 44.687 9.75362C44.7545 9.85709 44.8692 9.90883 45.0311 9.90883H45.4968C45.5417 9.90883 45.58 9.92457 45.6115 9.95607C45.643 9.98756 45.6587 10.0258 45.6587 10.0708V10.4892C45.6587 10.5342 45.643 10.5724 45.6115 10.6039C45.58 10.6354 45.5417 10.6511 45.4968 10.6511H44.9502ZM49.3515 10.7186C48.9916 10.7186 48.6879 10.6556 48.4405 10.5297C48.1975 10.4037 48.0108 10.226 47.8804 9.99655C47.7544 9.76712 47.6824 9.49944 47.6644 9.19353C47.6599 9.11255 47.6577 9.01358 47.6577 8.89661C47.6577 8.77964 47.6599 8.68067 47.6644 8.59969C47.6824 8.28928 47.7567 8.0216 47.8871 7.79667C48.0221 7.56723 48.211 7.38953 48.454 7.26356C48.7014 7.1376 49.0006 7.07462 49.3515 7.07462C49.7024 7.07462 49.9993 7.1376 50.2422 7.26356C50.4897 7.38953 50.6786 7.56723 50.8091 7.79667C50.944 8.0216 51.0205 8.28928 51.0385 8.59969C51.043 8.68067 51.0452 8.77964 51.0452 8.89661C51.0452 9.01358 51.043 9.11255 51.0385 9.19353C51.0205 9.49944 50.9463 9.76712 50.8158 9.99655C50.6898 10.226 50.5032 10.4037 50.2557 10.5297C50.0128 10.6556 49.7114 10.7186 49.3515 10.7186ZM49.3515 10.0505C49.5899 10.0505 49.7744 9.97631 49.9048 9.82785C50.0353 9.67489 50.1073 9.45221 50.1208 9.15979C50.1253 9.09231 50.1275 9.00458 50.1275 8.89661C50.1275 8.78864 50.1253 8.70091 50.1208 8.63343C50.1073 8.34551 50.0353 8.12507 49.9048 7.97212C49.7744 7.81916 49.5899 7.74268 49.3515 7.74268C49.113 7.74268 48.9286 7.81916 48.7981 7.97212C48.6677 8.12507 48.5957 8.34551 48.5822 8.63343C48.5777 8.70091 48.5754 8.78864 48.5754 8.89661C48.5754 9.00458 48.5777 9.09231 48.5822 9.15979C48.5957 9.45221 48.6677 9.67489 48.7981 9.82785C48.9286 9.97631 49.113 10.0505 49.3515 10.0505ZM51.9549 10.6511C51.9099 10.6511 51.8716 10.6354 51.8402 10.6039C51.8087 10.5724 51.7929 10.5342 51.7929 10.4892V7.30405C51.7929 7.25907 51.8087 7.22083 51.8402 7.18933C51.8716 7.15784 51.9099 7.1421 51.9549 7.1421H52.5082C52.5532 7.1421 52.5914 7.15784 52.6229 7.18933C52.6544 7.22083 52.6702 7.25907 52.6702 7.30405V7.58073C52.7871 7.43677 52.9356 7.31755 53.1156 7.22308C53.3 7.1241 53.5272 7.07462 53.7971 7.07462C54.0715 7.07462 54.31 7.1376 54.5124 7.26356C54.7149 7.38503 54.8701 7.55823 54.978 7.78317C55.0905 8.00811 55.1467 8.27803 55.1467 8.59294V10.4892C55.1467 10.5342 55.131 10.5724 55.0995 10.6039C55.068 10.6354 55.0298 10.6511 54.9848 10.6511H54.3909C54.346 10.6511 54.3077 10.6354 54.2762 10.6039C54.2447 10.5724 54.229 10.5342 54.229 10.4892V8.63343C54.229 8.37251 54.1638 8.16781 54.0333 8.01935C53.9073 7.8709 53.7229 7.79667 53.48 7.79667C53.246 7.79667 53.0593 7.8709 52.9199 8.01935C52.7804 8.16781 52.7107 8.37251 52.7107 8.63343V10.4892C52.7107 10.5342 52.6949 10.5724 52.6634 10.6039C52.6319 10.6354 52.5937 10.6511 52.5487 10.6511H51.9549Z" fill="black"/>
<path d="M29.557 23.4186C29.4616 23.4186 29.3806 23.3852 29.3138 23.3185C29.2471 23.2517 29.2137 23.1707 29.2137 23.0753V13.7646C29.2137 13.6597 29.2471 13.5739 29.3138 13.5072C29.3806 13.4404 29.4616 13.4071 29.557 13.4071H33.3899C34.1337 13.4071 34.782 13.5262 35.335 13.7646C35.8881 13.9934 36.3171 14.3462 36.6222 14.823C36.9274 15.2902 37.0799 15.8766 37.0799 16.5821C37.0799 17.2972 36.9274 17.8884 36.6222 18.3556C36.3171 18.8133 35.8881 19.1565 35.335 19.3854C34.782 19.6142 34.1337 19.7286 33.3899 19.7286H31.2589V23.0753C31.2589 23.1707 31.2256 23.2517 31.1588 23.3185C31.1016 23.3852 31.0206 23.4186 30.9157 23.4186H29.557ZM31.2303 18.1411H33.3184C33.8715 18.1411 34.2958 18.0124 34.5913 17.7549C34.8869 17.4879 35.0347 17.097 35.0347 16.5821C35.0347 16.1054 34.8964 15.724 34.6199 15.438C34.3434 15.1424 33.9096 14.9946 33.3184 14.9946H31.2303V18.1411ZM37.8262 23.4186C37.7308 23.4186 37.6498 23.3852 37.5831 23.3185C37.5163 23.2517 37.4829 23.1707 37.4829 23.0753V13.6073C37.4829 13.5119 37.5163 13.4309 37.5831 13.3642C37.6498 13.2974 37.7308 13.264 37.8262 13.264H39.0133C39.1086 13.264 39.1897 13.2974 39.2564 13.3642C39.3232 13.4309 39.3565 13.5119 39.3565 13.6073V23.0753C39.3565 23.1707 39.3232 23.2517 39.2564 23.3185C39.1897 23.3852 39.1086 23.4186 39.0133 23.4186H37.8262ZM42.4122 23.5616C41.9164 23.5616 41.4682 23.4663 41.0678 23.2756C40.6673 23.0753 40.3479 22.8131 40.1095 22.4889C39.8807 22.1552 39.7663 21.7834 39.7663 21.3734C39.7663 20.7059 40.0332 20.1768 40.5672 19.7858C41.1107 19.3854 41.8258 19.1184 42.7125 18.9849L44.6719 18.6989V18.3985C44.6719 17.9981 44.5718 17.6882 44.3716 17.4689C44.1713 17.2496 43.8281 17.1399 43.3418 17.1399C42.9986 17.1399 42.7173 17.2114 42.498 17.3545C42.2882 17.4879 42.1309 17.6691 42.026 17.8979C41.9497 18.0219 41.8401 18.0839 41.6971 18.0839H40.5672C40.4623 18.0839 40.3813 18.0553 40.324 17.9981C40.2764 17.9408 40.2525 17.8646 40.2525 17.7692C40.2621 17.6167 40.324 17.4307 40.4385 17.2114C40.5529 16.9921 40.734 16.7824 40.9819 16.5821C41.2298 16.3724 41.5493 16.196 41.9402 16.053C42.3311 15.9099 42.8031 15.8384 43.3561 15.8384C43.9568 15.8384 44.4621 15.9147 44.8721 16.0673C45.2917 16.2103 45.6254 16.4057 45.8733 16.6537C46.1212 16.9016 46.3024 17.1924 46.4168 17.5261C46.5312 17.8598 46.5884 18.2126 46.5884 18.5844V23.0753C46.5884 23.1707 46.555 23.2517 46.4883 23.3185C46.4215 23.3852 46.3405 23.4186 46.2451 23.4186H45.0867C44.9818 23.4186 44.896 23.3852 44.8292 23.3185C44.772 23.2517 44.7434 23.1707 44.7434 23.0753V22.5175C44.6195 22.6987 44.4526 22.8703 44.2428 23.0324C44.0331 23.185 43.7756 23.3137 43.4705 23.4186C43.1749 23.5139 42.8222 23.5616 42.4122 23.5616ZM42.8984 22.2029C43.2322 22.2029 43.5325 22.1314 43.7995 21.9884C44.076 21.8453 44.2905 21.626 44.4431 21.3305C44.6052 21.0253 44.6862 20.644 44.6862 20.1863V19.8859L43.256 20.1148C42.6934 20.2006 42.2739 20.3388 41.9974 20.5295C41.7209 20.7202 41.5826 20.9538 41.5826 21.2303C41.5826 21.4401 41.6446 21.6213 41.7686 21.7738C41.9021 21.9169 42.0689 22.0265 42.2691 22.1028C42.4694 22.1695 42.6791 22.2029 42.8984 22.2029ZM48.5709 26.136C48.4946 26.136 48.4279 26.1074 48.3707 26.0502C48.3135 25.993 48.2849 25.9262 48.2849 25.8499C48.2849 25.8118 48.2849 25.7737 48.2849 25.7355C48.2944 25.7069 48.3135 25.6688 48.3421 25.6211L49.4577 22.9752L46.7116 16.4963C46.6735 16.401 46.6544 16.3342 46.6544 16.2961C46.664 16.2103 46.6973 16.1388 46.7545 16.0816C46.8118 16.0148 46.8833 15.9814 46.9691 15.9814H48.1276C48.242 15.9814 48.3278 16.0101 48.385 16.0673C48.4422 16.1245 48.4851 16.1864 48.5137 16.2532L50.4159 20.93L52.3753 16.2532C52.4039 16.1769 52.4468 16.1149 52.504 16.0673C52.5612 16.0101 52.647 15.9814 52.7615 15.9814H53.9056C53.9819 15.9814 54.0487 16.0101 54.1059 16.0673C54.1726 16.1245 54.206 16.1912 54.206 16.2675C54.206 16.3247 54.1869 16.401 54.1488 16.4963L50.1013 25.8643C50.0631 25.9405 50.0154 26.0025 49.9582 26.0502C49.901 26.1074 49.8152 26.136 49.7008 26.136H48.5709ZM59.975 23.5616C59.0883 23.5616 58.3446 23.4329 57.7439 23.1754C57.1527 22.9085 56.6998 22.5652 56.3852 22.1457C56.08 21.7166 55.918 21.2685 55.8989 20.8013C55.8989 20.7155 55.9275 20.644 55.9847 20.5867C56.0419 20.5295 56.1134 20.5009 56.1992 20.5009H57.4721C57.5961 20.5009 57.6867 20.5295 57.7439 20.5867C57.8106 20.6344 57.8678 20.6964 57.9155 20.7727C57.9727 20.9538 58.0824 21.135 58.2444 21.3162C58.4065 21.4878 58.6258 21.6308 58.9023 21.7452C59.1884 21.8596 59.5459 21.9169 59.975 21.9169C60.6615 21.9169 61.1716 21.8024 61.5053 21.5736C61.8486 21.3448 62.0202 21.0349 62.0202 20.644C62.0202 20.3674 61.9296 20.1481 61.7485 19.9861C61.5673 19.8144 61.286 19.6619 60.9046 19.5284C60.5328 19.3854 60.037 19.2376 59.4172 19.085C58.7021 18.9134 58.1014 18.7084 57.6151 18.47C57.1384 18.2221 56.7761 17.9122 56.5282 17.5404C56.2898 17.1685 56.1706 16.6966 56.1706 16.1245C56.1706 15.5715 56.3184 15.0804 56.614 14.6513C56.9191 14.2223 57.3482 13.8838 57.9012 13.6359C58.4637 13.388 59.1312 13.264 59.9035 13.264C60.5233 13.264 61.0715 13.3498 61.5482 13.5215C62.025 13.6836 62.4207 13.9029 62.7353 14.1794C63.05 14.4463 63.2883 14.7372 63.4504 15.0518C63.6221 15.3569 63.7126 15.6573 63.7222 15.9528C63.7222 16.0291 63.6936 16.1006 63.6364 16.1674C63.5887 16.2246 63.5172 16.2532 63.4218 16.2532H62.0917C62.0155 16.2532 61.9392 16.2341 61.8629 16.196C61.7866 16.1578 61.7246 16.0863 61.677 15.9814C61.6198 15.6859 61.4338 15.4332 61.1192 15.2234C60.8045 15.0137 60.3993 14.9088 59.9035 14.9088C59.3886 14.9088 58.9739 15.0041 58.6592 15.1948C58.3446 15.3855 58.1872 15.6811 58.1872 16.0816C58.1872 16.3485 58.2635 16.5726 58.4161 16.7538C58.5782 16.9254 58.8308 17.0779 59.1741 17.2114C59.5269 17.3449 59.9893 17.4879 60.5614 17.6405C61.3719 17.8217 62.0345 18.0314 62.5494 18.2698C63.0643 18.5082 63.4409 18.8133 63.6793 19.1851C63.9176 19.5475 64.0368 20.0099 64.0368 20.5724C64.0368 21.2017 63.8652 21.7405 63.5219 22.1886C63.1882 22.6272 62.7163 22.9657 62.106 23.204C61.4958 23.4424 60.7855 23.5616 59.975 23.5616ZM67.8641 23.4186C67.292 23.4186 66.8105 23.3185 66.4196 23.1182C66.0287 22.918 65.7379 22.6224 65.5472 22.2315C65.3565 21.831 65.2611 21.3352 65.2611 20.7441V17.4975H64.1312C64.0359 17.4975 63.9548 17.4641 63.8881 17.3974C63.8214 17.3306 63.788 17.2496 63.788 17.1542V16.3247C63.788 16.2294 63.8214 16.1483 63.8881 16.0816C63.9548 16.0148 64.0359 15.9814 64.1312 15.9814H65.2611V13.6073C65.2611 13.5119 65.2897 13.4309 65.3469 13.3642C65.4137 13.2974 65.4995 13.264 65.6044 13.264H66.7628C66.8582 13.264 66.9392 13.2974 67.006 13.3642C67.0727 13.4309 67.1061 13.5119 67.1061 13.6073V15.9814H68.8939C68.9892 15.9814 69.0703 16.0148 69.137 16.0816C69.2037 16.1483 69.2371 16.2294 69.2371 16.3247V17.1542C69.2371 17.2496 69.2037 17.3306 69.137 17.3974C69.0703 17.4641 68.9892 17.4975 68.8939 17.4975H67.1061V20.6011C67.1061 20.992 67.1728 21.2971 67.3063 21.5164C67.4493 21.7357 67.6925 21.8453 68.0357 21.8453H69.0226C69.1179 21.8453 69.199 21.8787 69.2657 21.9455C69.3325 22.0122 69.3658 22.0932 69.3658 22.1886V23.0753C69.3658 23.1707 69.3325 23.2517 69.2657 23.3185C69.199 23.3852 69.1179 23.4186 69.0226 23.4186H67.8641ZM72.9229 23.5616C72.1602 23.5616 71.5166 23.4281 70.9922 23.1611C70.4773 22.8942 70.0816 22.5175 69.8051 22.0313C69.5381 21.545 69.3855 20.9777 69.3474 20.3293C69.3379 20.1577 69.3331 19.9479 69.3331 19.7C69.3331 19.4521 69.3379 19.2423 69.3474 19.0707C69.3855 18.4128 69.5429 17.8455 69.8194 17.3688C70.1054 16.8825 70.5059 16.5059 71.0208 16.2389C71.5452 15.9719 72.1792 15.8384 72.9229 15.8384C73.6667 15.8384 74.296 15.9719 74.8108 16.2389C75.3352 16.5059 75.7357 16.8825 76.0122 17.3688C76.2983 17.8455 76.4604 18.4128 76.4985 19.0707C76.508 19.2423 76.5128 19.4521 76.5128 19.7C76.5128 19.9479 76.508 20.1577 76.4985 20.3293C76.4604 20.9777 76.303 21.545 76.0265 22.0313C75.7595 22.5175 75.3639 22.8942 74.8394 23.1611C74.3246 23.4281 73.6857 23.5616 72.9229 23.5616ZM72.9229 22.1457C73.4283 22.1457 73.8192 21.9884 74.0957 21.6737C74.3722 21.3495 74.5248 20.8776 74.5534 20.2578C74.5629 20.1148 74.5677 19.9288 74.5677 19.7C74.5677 19.4712 74.5629 19.2853 74.5534 19.1422C74.5248 18.532 74.3722 18.0648 74.0957 17.7406C73.8192 17.4164 73.4283 17.2543 72.9229 17.2543C72.4176 17.2543 72.0267 17.4164 71.7502 17.7406C71.4737 18.0648 71.3211 18.532 71.2925 19.1422C71.283 19.2853 71.2782 19.4712 71.2782 19.7C71.2782 19.9288 71.283 20.1148 71.2925 20.2578C71.3211 20.8776 71.4737 21.3495 71.7502 21.6737C72.0267 21.9884 72.4176 22.1457 72.9229 22.1457ZM77.4395 23.4186C77.3442 23.4186 77.2631 23.3852 77.1964 23.3185C77.1296 23.2517 77.0963 23.1707 77.0963 23.0753V16.339C77.0963 16.2341 77.1296 16.1483 77.1964 16.0816C77.2631 16.0148 77.3442 15.9814 77.4395 15.9814H78.598C78.6934 15.9814 78.7744 16.0148 78.8411 16.0816C78.9174 16.1483 78.9556 16.2341 78.9556 16.339V16.9254C79.1749 16.6203 79.4561 16.3867 79.7994 16.2246C80.1522 16.0625 80.5574 15.9814 81.0151 15.9814H81.6015C81.7063 15.9814 81.7874 16.0148 81.8446 16.0816C81.9113 16.1483 81.9447 16.2294 81.9447 16.3247V17.3545C81.9447 17.4498 81.9113 17.5309 81.8446 17.5976C81.7874 17.6643 81.7063 17.6977 81.6015 17.6977H80.4859C80.0282 17.6977 79.6707 17.8264 79.4132 18.0839C79.1653 18.3413 79.0414 18.6941 79.0414 19.1422V23.0753C79.0414 23.1707 79.008 23.2517 78.9413 23.3185C78.8745 23.3852 78.7887 23.4186 78.6838 23.4186H77.4395ZM85.1649 23.5616C84.1066 23.5616 83.2675 23.2565 82.6478 22.6463C82.028 22.036 81.6943 21.1684 81.6466 20.0433C81.6371 19.9479 81.6323 19.8287 81.6323 19.6857C81.6323 19.5332 81.6371 19.414 81.6466 19.3282C81.6847 18.613 81.8468 17.9933 82.1329 17.4689C82.4285 16.9445 82.8337 16.544 83.3486 16.2675C83.8634 15.9814 84.4689 15.8384 85.1649 15.8384C85.9373 15.8384 86.5856 16.0005 87.11 16.3247C87.6344 16.6393 88.0301 17.0827 88.2971 17.6548C88.5641 18.2174 88.6976 18.8705 88.6976 19.6142V19.9145C88.6976 20.0099 88.6642 20.0909 88.5975 20.1577C88.5307 20.2244 88.4449 20.2578 88.34 20.2578H83.5917C83.5917 20.2578 83.5917 20.2721 83.5917 20.3007C83.5917 20.3293 83.5917 20.3531 83.5917 20.3722C83.6012 20.7059 83.6632 21.0158 83.7776 21.3019C83.9016 21.5784 84.078 21.8024 84.3068 21.9741C84.5452 22.1457 84.8264 22.2315 85.1506 22.2315C85.4176 22.2315 85.6417 22.1934 85.8228 22.1171C86.004 22.0313 86.1518 21.9359 86.2662 21.831C86.3806 21.7262 86.4617 21.6403 86.5093 21.5736C86.5952 21.4592 86.6619 21.3924 86.7096 21.3734C86.7668 21.3448 86.8478 21.3305 86.9527 21.3305H88.1827C88.278 21.3305 88.3543 21.3591 88.4115 21.4163C88.4783 21.4735 88.5069 21.545 88.4973 21.6308C88.4878 21.7834 88.4068 21.9693 88.2542 22.1886C88.1112 22.4079 87.9014 22.6224 87.6249 22.8322C87.3484 23.042 87.0004 23.2183 86.5808 23.3614C86.1709 23.4949 85.6989 23.5616 85.1649 23.5616ZM83.5917 19.0564H86.7525V19.0135C86.7525 18.6417 86.6905 18.3175 86.5665 18.041C86.4426 17.7645 86.2614 17.5452 86.0231 17.3831C85.7847 17.221 85.4987 17.1399 85.1649 17.1399C84.8312 17.1399 84.5452 17.221 84.3068 17.3831C84.0684 17.5452 83.8873 17.7645 83.7633 18.041C83.6489 18.3175 83.5917 18.6417 83.5917 19.0135V19.0564Z" fill="black"/>
</svg>
